<mxfile host="app.diagrams.net" agent="Mozilla/5.0 (Windows NT 10.0; Win64; x64; rv:131.0) Gecko/20100101 Firefox/131.0" version="24.7.17">
  <diagram id="C5RBs43oDa-KdzZeNtuy" name="Page-1">
    <mxGraphModel grid="1" page="1" gridSize="10" guides="1" tooltips="1" connect="1" arrows="1" fold="1" pageScale="1" pageWidth="827" pageHeight="1169" math="0" shadow="0">
      <root>
        <mxCell id="WIyWlLk6GJQsqaUBKTNV-0" />
        <mxCell id="WIyWlLk6GJQsqaUBKTNV-1" parent="WIyWlLk6GJQsqaUBKTNV-0" />
        <mxCell id="zkfFHV4jXpPFQw0GAbJ--0" value="Technician" style="swimlane;fontStyle=2;align=center;verticalAlign=top;childLayout=stackLayout;horizontal=1;startSize=26;horizontalStack=0;resizeParent=1;resizeLast=0;collapsible=1;marginBottom=0;rounded=0;shadow=0;strokeWidth=1;" vertex="1" parent="WIyWlLk6GJQsqaUBKTNV-1">
          <mxGeometry x="90" y="156" width="160" height="130" as="geometry">
            <mxRectangle x="230" y="140" width="160" height="26" as="alternateBounds" />
          </mxGeometry>
        </mxCell>
        <mxCell id="zkfFHV4jXpPFQw0GAbJ--1" value="Technician Name&#xa;Session Duration&#xa;Service Permissions&#xa;Login Timestamp&#xa;Logout Timestamp" style="text;align=left;verticalAlign=top;spacingLeft=4;spacingRight=4;overflow=hidden;rotatable=0;points=[[0,0.5],[1,0.5]];portConstraint=eastwest;" vertex="1" parent="zkfFHV4jXpPFQw0GAbJ--0">
          <mxGeometry y="26" width="160" height="94" as="geometry" />
        </mxCell>
        <mxCell id="zkfFHV4jXpPFQw0GAbJ--6" value="Driver" style="swimlane;fontStyle=0;align=center;verticalAlign=top;childLayout=stackLayout;horizontal=1;startSize=26;horizontalStack=0;resizeParent=1;resizeLast=0;collapsible=1;marginBottom=0;rounded=0;shadow=0;strokeWidth=1;" vertex="1" parent="WIyWlLk6GJQsqaUBKTNV-1">
          <mxGeometry x="100" y="616" width="160" height="92" as="geometry">
            <mxRectangle x="130" y="380" width="160" height="26" as="alternateBounds" />
          </mxGeometry>
        </mxCell>
        <mxCell id="dhq6A3jDFtmPvamK7AkF-3" value="First Name&lt;div&gt;Last Name&lt;/div&gt;&lt;div&gt;Status&lt;/div&gt;" style="text;html=1;align=left;verticalAlign=middle;resizable=0;points=[];autosize=1;strokeColor=none;fillColor=none;" vertex="1" parent="zkfFHV4jXpPFQw0GAbJ--6">
          <mxGeometry y="26" width="160" height="60" as="geometry" />
        </mxCell>
        <mxCell id="zkfFHV4jXpPFQw0GAbJ--13" value="Vehicle" style="swimlane;fontStyle=0;align=center;verticalAlign=top;childLayout=stackLayout;horizontal=1;startSize=26;horizontalStack=0;resizeParent=1;resizeLast=0;collapsible=1;marginBottom=0;rounded=0;shadow=0;strokeWidth=1;" vertex="1" parent="WIyWlLk6GJQsqaUBKTNV-1">
          <mxGeometry x="340" y="156" width="160" height="220" as="geometry">
            <mxRectangle x="340" y="380" width="170" height="26" as="alternateBounds" />
          </mxGeometry>
        </mxCell>
        <mxCell id="zKc-PcSBb8OQiNiPHXoD-6" value="&lt;div align=&quot;left&quot;&gt;Inside/outside Temp&lt;/div&gt;&lt;div align=&quot;left&quot;&gt;Status of engine systems&lt;/div&gt;&lt;div align=&quot;left&quot;&gt;Fault Codes&lt;/div&gt;&lt;div align=&quot;left&quot;&gt;Model&lt;/div&gt;&lt;div align=&quot;left&quot;&gt;Mileage&lt;/div&gt;&lt;div align=&quot;left&quot;&gt;Battery Strength&lt;/div&gt;&lt;div align=&quot;left&quot;&gt;&lt;br&gt;&lt;/div&gt;&lt;div align=&quot;left&quot;&gt;&lt;br&gt;&lt;/div&gt;&lt;div align=&quot;left&quot;&gt;&lt;br&gt;&lt;/div&gt;" style="text;html=1;align=left;verticalAlign=top;whiteSpace=wrap;rounded=0;" vertex="1" parent="zkfFHV4jXpPFQw0GAbJ--13">
          <mxGeometry y="26" width="160" height="154" as="geometry" />
        </mxCell>
        <mxCell id="zKc-PcSBb8OQiNiPHXoD-9" style="rounded=0;orthogonalLoop=1;jettySize=auto;html=1;endArrow=none;endFill=0;" edge="1" parent="WIyWlLk6GJQsqaUBKTNV-1" source="zKc-PcSBb8OQiNiPHXoD-0" target="zkfFHV4jXpPFQw0GAbJ--6">
          <mxGeometry relative="1" as="geometry" />
        </mxCell>
        <mxCell id="9ll0t4OBZ6mmHKWvKHAP-5" style="edgeStyle=none;curved=1;rounded=0;orthogonalLoop=1;jettySize=auto;html=1;exitX=1;exitY=0;exitDx=0;exitDy=0;entryX=0;entryY=1;entryDx=0;entryDy=0;fontSize=12;startSize=8;endSize=8;endArrow=none;endFill=0;" edge="1" parent="WIyWlLk6GJQsqaUBKTNV-1" source="zKc-PcSBb8OQiNiPHXoD-0" target="zKc-PcSBb8OQiNiPHXoD-6">
          <mxGeometry relative="1" as="geometry" />
        </mxCell>
        <mxCell id="zKc-PcSBb8OQiNiPHXoD-0" value="Owner" style="swimlane;fontStyle=0;align=center;verticalAlign=top;childLayout=stackLayout;horizontal=1;startSize=26;horizontalStack=0;resizeParent=1;resizeLast=0;collapsible=1;marginBottom=0;rounded=0;shadow=0;strokeWidth=1;" vertex="1" parent="WIyWlLk6GJQsqaUBKTNV-1">
          <mxGeometry x="100" y="381" width="160" height="120" as="geometry">
            <mxRectangle x="130" y="380" width="160" height="26" as="alternateBounds" />
          </mxGeometry>
        </mxCell>
        <mxCell id="dhq6A3jDFtmPvamK7AkF-4" value="First Name&lt;div&gt;Last Name&lt;/div&gt;&lt;div&gt;Status&lt;/div&gt;&lt;div&gt;Payment Information&lt;/div&gt;&lt;div&gt;Vehicles&lt;/div&gt;" style="text;html=1;align=left;verticalAlign=middle;resizable=0;points=[];autosize=1;strokeColor=none;fillColor=none;" vertex="1" parent="zKc-PcSBb8OQiNiPHXoD-0">
          <mxGeometry y="26" width="160" height="90" as="geometry" />
        </mxCell>
        <mxCell id="zKc-PcSBb8OQiNiPHXoD-7" style="edgeStyle=orthogonalEdgeStyle;rounded=0;orthogonalLoop=1;jettySize=auto;html=1;entryX=1;entryY=0.5;entryDx=0;entryDy=0;exitX=0.5;exitY=0;exitDx=0;exitDy=0;endArrow=none;endFill=0;" edge="1" parent="WIyWlLk6GJQsqaUBKTNV-1" source="dhq6A3jDFtmPvamK7AkF-5" target="zKc-PcSBb8OQiNiPHXoD-6">
          <mxGeometry relative="1" as="geometry">
            <mxPoint x="640" y="299" as="sourcePoint" />
            <Array as="points">
              <mxPoint x="640" y="296" />
              <mxPoint x="500" y="296" />
            </Array>
          </mxGeometry>
        </mxCell>
        <mxCell id="dhq6A3jDFtmPvamK7AkF-5" value="Geofencing" style="swimlane;fontStyle=0;align=center;verticalAlign=top;childLayout=stackLayout;horizontal=1;startSize=26;horizontalStack=0;resizeParent=1;resizeLast=0;collapsible=1;marginBottom=0;rounded=0;shadow=0;strokeWidth=1;" vertex="1" parent="WIyWlLk6GJQsqaUBKTNV-1">
          <mxGeometry x="560" y="396" width="160" height="90" as="geometry">
            <mxRectangle x="130" y="380" width="160" height="26" as="alternateBounds" />
          </mxGeometry>
        </mxCell>
        <mxCell id="dhq6A3jDFtmPvamK7AkF-6" value="GPS Map Perimeter&lt;div&gt;GPS Location&lt;/div&gt;&lt;div&gt;GPS History&lt;/div&gt;" style="text;html=1;align=left;verticalAlign=middle;resizable=0;points=[];autosize=1;strokeColor=none;fillColor=none;" vertex="1" parent="dhq6A3jDFtmPvamK7AkF-5">
          <mxGeometry y="26" width="160" height="60" as="geometry" />
        </mxCell>
        <mxCell id="dhq6A3jDFtmPvamK7AkF-7" value="Security Features" style="swimlane;fontStyle=0;align=center;verticalAlign=top;childLayout=stackLayout;horizontal=1;startSize=26;horizontalStack=0;resizeParent=1;resizeLast=0;collapsible=1;marginBottom=0;rounded=0;shadow=0;strokeWidth=1;" vertex="1" parent="WIyWlLk6GJQsqaUBKTNV-1">
          <mxGeometry x="570" y="30" width="130" height="156" as="geometry">
            <mxRectangle x="130" y="380" width="160" height="26" as="alternateBounds" />
          </mxGeometry>
        </mxCell>
        <mxCell id="dhq6A3jDFtmPvamK7AkF-8" value="Alarm Status&lt;br&gt;Lock Status&lt;br&gt;On-Off Status&lt;br&gt;Error Codes&lt;br&gt;Activity Log&lt;br&gt;Video Feed&lt;br&gt;&lt;br&gt;&lt;br&gt;" style="text;align=left;verticalAlign=middle;resizable=0;points=[];autosize=1;strokeColor=none;fillColor=none;html=1;" vertex="1" parent="dhq6A3jDFtmPvamK7AkF-7">
          <mxGeometry y="26" width="130" height="130" as="geometry" />
        </mxCell>
        <mxCell id="9ll0t4OBZ6mmHKWvKHAP-7" style="edgeStyle=none;curved=1;rounded=0;orthogonalLoop=1;jettySize=auto;html=1;entryX=0.5;entryY=1;entryDx=0;entryDy=0;fontSize=12;startSize=8;endSize=8;endArrow=none;endFill=0;" edge="1" parent="WIyWlLk6GJQsqaUBKTNV-1" source="dhq6A3jDFtmPvamK7AkF-9" target="zkfFHV4jXpPFQw0GAbJ--13">
          <mxGeometry relative="1" as="geometry" />
        </mxCell>
        <mxCell id="dhq6A3jDFtmPvamK7AkF-9" value="Control Accessories" style="swimlane;fontStyle=0;align=center;verticalAlign=top;childLayout=stackLayout;horizontal=1;startSize=26;horizontalStack=0;resizeParent=1;resizeLast=0;collapsible=1;marginBottom=0;rounded=0;shadow=0;strokeWidth=1;" vertex="1" parent="WIyWlLk6GJQsqaUBKTNV-1">
          <mxGeometry x="335" y="496" width="170" height="120" as="geometry">
            <mxRectangle x="130" y="380" width="160" height="26" as="alternateBounds" />
          </mxGeometry>
        </mxCell>
        <mxCell id="dhq6A3jDFtmPvamK7AkF-10" value="&lt;div&gt;Windows&lt;/div&gt;&lt;div&gt;Sunroof&lt;/div&gt;&lt;div&gt;Lock/Unlock Doors&lt;/div&gt;&lt;div&gt;Remote Start Check Status&lt;br style=&quot;padding: 0px; margin: 0px;&quot;&gt;Shutdown Remote Start&lt;br&gt;&lt;/div&gt;" style="text;html=1;align=left;verticalAlign=middle;resizable=0;points=[];autosize=1;strokeColor=none;fillColor=none;" vertex="1" parent="dhq6A3jDFtmPvamK7AkF-9">
          <mxGeometry y="26" width="170" height="90" as="geometry" />
        </mxCell>
        <mxCell id="zKc-PcSBb8OQiNiPHXoD-8" value="Each vehicle has GPS and Geofencing information" style="text;html=1;align=center;verticalAlign=middle;whiteSpace=wrap;rounded=0;" vertex="1" parent="WIyWlLk6GJQsqaUBKTNV-1">
          <mxGeometry x="540" y="246" width="80" height="30" as="geometry" />
        </mxCell>
        <mxCell id="zKc-PcSBb8OQiNiPHXoD-10" style="rounded=0;orthogonalLoop=1;jettySize=auto;html=1;entryX=0.75;entryY=0;entryDx=0;entryDy=0;endArrow=none;endFill=0;startArrow=none;startFill=0;" edge="1" parent="WIyWlLk6GJQsqaUBKTNV-1" source="dhq6A3jDFtmPvamK7AkF-8" target="zkfFHV4jXpPFQw0GAbJ--13">
          <mxGeometry relative="1" as="geometry" />
        </mxCell>
        <mxCell id="zKc-PcSBb8OQiNiPHXoD-12" style="rounded=0;orthogonalLoop=1;jettySize=auto;html=1;endArrow=none;endFill=0;exitX=0.997;exitY=0.907;exitDx=0;exitDy=0;exitPerimeter=0;" edge="1" parent="WIyWlLk6GJQsqaUBKTNV-1" source="dhq6A3jDFtmPvamK7AkF-4">
          <mxGeometry relative="1" as="geometry">
            <mxPoint x="280" y="496" as="sourcePoint" />
            <mxPoint x="335" y="536" as="targetPoint" />
          </mxGeometry>
        </mxCell>
        <mxCell id="zKc-PcSBb8OQiNiPHXoD-13" style="rounded=0;orthogonalLoop=1;jettySize=auto;html=1;entryX=0.002;entryY=0.387;entryDx=0;entryDy=0;endArrow=none;endFill=0;exitX=1.008;exitY=0.424;exitDx=0;exitDy=0;exitPerimeter=0;entryPerimeter=0;" edge="1" parent="WIyWlLk6GJQsqaUBKTNV-1" source="dhq6A3jDFtmPvamK7AkF-3" target="dhq6A3jDFtmPvamK7AkF-10">
          <mxGeometry relative="1" as="geometry">
            <mxPoint x="280" y="296" as="sourcePoint" />
          </mxGeometry>
        </mxCell>
        <mxCell id="zKc-PcSBb8OQiNiPHXoD-14" style="rounded=0;orthogonalLoop=1;jettySize=auto;html=1;endArrow=none;endFill=0;edgeStyle=elbowEdgeStyle;exitX=1.004;exitY=0.645;exitDx=0;exitDy=0;exitPerimeter=0;" edge="1" parent="WIyWlLk6GJQsqaUBKTNV-1" source="dhq6A3jDFtmPvamK7AkF-4">
          <mxGeometry relative="1" as="geometry">
            <mxPoint x="280.24" y="466" as="sourcePoint" />
            <mxPoint x="410" y="466" as="targetPoint" />
            <Array as="points">
              <mxPoint x="410.24" y="466" />
              <mxPoint x="430.24" y="466" />
            </Array>
          </mxGeometry>
        </mxCell>
        <mxCell id="zKc-PcSBb8OQiNiPHXoD-15" style="edgeStyle=orthogonalEdgeStyle;rounded=0;orthogonalLoop=1;jettySize=auto;html=1;endArrow=none;endFill=0;startArrow=none;startFill=0;" edge="1" parent="WIyWlLk6GJQsqaUBKTNV-1">
          <mxGeometry relative="1" as="geometry">
            <mxPoint x="430" y="466" as="targetPoint" />
            <mxPoint x="560" y="466" as="sourcePoint" />
          </mxGeometry>
        </mxCell>
        <mxCell id="9ll0t4OBZ6mmHKWvKHAP-10" style="edgeStyle=none;curved=1;rounded=0;orthogonalLoop=1;jettySize=auto;html=1;exitX=1;exitY=0.5;exitDx=0;exitDy=0;entryX=0.01;entryY=0.306;entryDx=0;entryDy=0;entryPerimeter=0;fontSize=12;startSize=8;endSize=8;endArrow=none;endFill=0;" edge="1" parent="WIyWlLk6GJQsqaUBKTNV-1" source="zkfFHV4jXpPFQw0GAbJ--1" target="zKc-PcSBb8OQiNiPHXoD-6">
          <mxGeometry relative="1" as="geometry" />
        </mxCell>
        <mxCell id="zKc-PcSBb8OQiNiPHXoD-16" value="" style="curved=1;endArrow=none;html=1;rounded=0;endFill=0;" edge="1" parent="WIyWlLk6GJQsqaUBKTNV-1">
          <mxGeometry width="50" height="50" relative="1" as="geometry">
            <mxPoint x="410" y="466" as="sourcePoint" />
            <mxPoint x="430" y="466" as="targetPoint" />
            <Array as="points">
              <mxPoint x="420" y="446" />
            </Array>
          </mxGeometry>
        </mxCell>
        <mxCell id="zKc-PcSBb8OQiNiPHXoD-17" value="&lt;div&gt;Owner controls and sets Geofencing&lt;/div&gt;" style="text;html=1;align=center;verticalAlign=middle;whiteSpace=wrap;rounded=0;" vertex="1" parent="WIyWlLk6GJQsqaUBKTNV-1">
          <mxGeometry x="280" y="416" width="60" height="30" as="geometry" />
        </mxCell>
        <mxCell id="9ll0t4OBZ6mmHKWvKHAP-11" value="&lt;div&gt;&lt;font style=&quot;font-size: 10px;&quot;&gt;Technician able to observe but not change settings&lt;/font&gt;&lt;/div&gt;" style="text;strokeColor=none;fillColor=none;html=1;align=center;verticalAlign=middle;whiteSpace=wrap;rounded=0;fontSize=16;" vertex="1" parent="WIyWlLk6GJQsqaUBKTNV-1">
          <mxGeometry x="260" y="166" width="65" height="20" as="geometry" />
        </mxCell>
        <mxCell id="dhq6A3jDFtmPvamK7AkF-13" value="&lt;div&gt;General DisArrays&lt;br&gt;&lt;/div&gt;&lt;div&gt;Class Diagram&lt;/div&gt;&lt;div&gt;10/13/2024&lt;/div&gt;" style="text;html=1;align=center;verticalAlign=middle;whiteSpace=wrap;rounded=0;" vertex="1" parent="WIyWlLk6GJQsqaUBKTNV-1">
          <mxGeometry width="180" height="90" as="geometry" />
        </mxCell>
        <mxCell id="9ll0t4OBZ6mmHKWvKHAP-14" value="&lt;font style=&quot;font-size: 10px;&quot;&gt;Each vehicle has security features that monitor the vehicle&amp;nbsp;&lt;/font&gt;" style="text;strokeColor=none;fillColor=none;html=1;align=center;verticalAlign=middle;whiteSpace=wrap;rounded=0;fontSize=16;" vertex="1" parent="WIyWlLk6GJQsqaUBKTNV-1">
          <mxGeometry x="480" y="66" width="60" height="30" as="geometry" />
        </mxCell>
        <mxCell id="9ll0t4OBZ6mmHKWvKHAP-15" value="&lt;font style=&quot;font-size: 10px;&quot;&gt;Owner can see limited driver(s) information&lt;/font&gt;" style="text;strokeColor=none;fillColor=none;html=1;align=center;verticalAlign=middle;whiteSpace=wrap;rounded=0;fontSize=16;" vertex="1" parent="WIyWlLk6GJQsqaUBKTNV-1">
          <mxGeometry x="110" y="541" width="60" height="30" as="geometry" />
        </mxCell>
        <mxCell id="9ll0t4OBZ6mmHKWvKHAP-16" style="edgeStyle=none;curved=1;rounded=0;orthogonalLoop=1;jettySize=auto;html=1;exitX=0.75;exitY=0;exitDx=0;exitDy=0;fontSize=12;startSize=8;endSize=8;" edge="1" parent="WIyWlLk6GJQsqaUBKTNV-1" source="9ll0t4OBZ6mmHKWvKHAP-15" target="9ll0t4OBZ6mmHKWvKHAP-15">
          <mxGeometry relative="1" as="geometry" />
        </mxCell>
      </root>
    </mxGraphModel>
  </diagram>
</mxfile>
